<svg xmlns="http://www.w3.org/2000/svg" viewBox="0 0 118.19 118.19"><defs><style>.cls-1{fill:#fff;}.cls-2{fill:#a5a8a9;}</style></defs><g id="Layer_2" data-name="Layer 2"><g id="Layer_1-2" data-name="Layer 1"><path class="cls-1" d="M59.1,0a59.1,59.1,0,1,0,59.09,59.1A59.1,59.1,0,0,0,59.1,0Z"/><path class="cls-1" d="M25.64,4.45H4.45V25.64A64.64,64.64,0,0,1,25.64,4.45Z"/><path class="cls-1" d="M113.74,25.64V4.45H92.56A64.61,64.61,0,0,1,113.74,25.64Z"/><path class="cls-1" d="M4.45,92.56v21.18H25.64A64.61,64.61,0,0,1,4.45,92.56Z"/><path class="cls-1" d="M92.56,113.74h21.18V92.56A64.58,64.58,0,0,1,92.56,113.74Z"/><path class="cls-2" d="M59.1,16.16A42.94,42.94,0,1,1,16.16,59.1,43,43,0,0,1,59.1,16.16"/><path class="cls-1" d="M59.77,60.54,55.31,75.61H79.2a1.24,1.24,0,0,1,1.22,1.23,1.27,1.27,0,0,1,0,.34l-2.08,7.16a1.63,1.63,0,0,1-1.57,1.18H40.23L46.4,64.69l-6.83,2.07,1.51-4.87,6.83-2.07,8.67-29.27a1.61,1.61,0,0,1,1.56-1.2h9.25a1.23,1.23,0,0,1,1.23,1.22,1.27,1.27,0,0,1-.05.34L61.3,55.66l6.83-2.08-1.47,5Z"/></g></g></svg>